<mxfile host="app.diagrams.net" agent="Mozilla/5.0 (Windows NT 10.0; Win64; x64) AppleWebKit/537.36 (KHTML, like Gecko) Chrome/138.0.0.0 Safari/537.36" version="28.0.7">
  <diagram name="Page-1" id="FsFkMQnYSX51189rUtDb">
    <mxGraphModel dx="2505" dy="874" grid="1" gridSize="5" guides="1" tooltips="1" connect="1" arrows="1" fold="1" page="1" pageScale="1" pageWidth="827" pageHeight="1169" math="0" shadow="0">
      <root>
        <mxCell id="0" />
        <mxCell id="1" parent="0" />
        <mxCell id="Ea4pvNYWEEPgaREjsY3E-20" value="&lt;font style=&quot;font-size: 100px;&quot; face=&quot;Digital-7&quot;&gt;8 . 8 . 8 .&lt;/font&gt;" style="text;html=1;align=left;verticalAlign=middle;whiteSpace=wrap;rounded=0;movable=1;resizable=1;rotatable=1;deletable=1;editable=1;locked=0;connectable=1;fontColor=light-dark(#000000,#888888);" vertex="1" parent="1">
          <mxGeometry x="145" y="385" width="370" height="70" as="geometry" />
        </mxCell>
        <mxCell id="Ea4pvNYWEEPgaREjsY3E-21" value="&lt;font face=&quot;Digital-7&quot; style=&quot;font-size: 100px;&quot;&gt;8.8.8&lt;/font&gt;" style="text;html=1;align=center;verticalAlign=middle;whiteSpace=wrap;rounded=0;movable=1;resizable=1;rotatable=1;deletable=1;editable=1;locked=0;connectable=1;fontColor=light-dark(#000000,#888888);" vertex="1" parent="1">
          <mxGeometry x="600" y="380" width="180" height="80" as="geometry" />
        </mxCell>
        <mxCell id="Ea4pvNYWEEPgaREjsY3E-1" value="" style="ellipse;whiteSpace=wrap;html=1;" vertex="1" parent="1">
          <mxGeometry x="-285" y="230" width="50" height="50" as="geometry" />
        </mxCell>
        <mxCell id="Ea4pvNYWEEPgaREjsY3E-2" value="" style="ellipse;whiteSpace=wrap;html=1;" vertex="1" parent="1">
          <mxGeometry x="-215" y="230" width="50" height="50" as="geometry" />
        </mxCell>
        <mxCell id="Ea4pvNYWEEPgaREjsY3E-3" value="" style="ellipse;whiteSpace=wrap;html=1;" vertex="1" parent="1">
          <mxGeometry x="-145" y="230" width="50" height="50" as="geometry" />
        </mxCell>
        <mxCell id="Ea4pvNYWEEPgaREjsY3E-4" value="" style="ellipse;whiteSpace=wrap;html=1;" vertex="1" parent="1">
          <mxGeometry x="-215" y="160" width="50" height="50" as="geometry" />
        </mxCell>
        <mxCell id="Ea4pvNYWEEPgaREjsY3E-5" value="" style="ellipse;whiteSpace=wrap;html=1;" vertex="1" parent="1">
          <mxGeometry x="-145" y="160" width="50" height="50" as="geometry" />
        </mxCell>
        <mxCell id="Ea4pvNYWEEPgaREjsY3E-6" value="" style="ellipse;whiteSpace=wrap;html=1;" vertex="1" parent="1">
          <mxGeometry x="-215" y="300" width="50" height="50" as="geometry" />
        </mxCell>
        <mxCell id="Ea4pvNYWEEPgaREjsY3E-7" value="" style="ellipse;whiteSpace=wrap;html=1;" vertex="1" parent="1">
          <mxGeometry x="-145" y="300" width="50" height="50" as="geometry" />
        </mxCell>
        <mxCell id="Ea4pvNYWEEPgaREjsY3E-8" value="" style="ellipse;whiteSpace=wrap;html=1;" vertex="1" parent="1">
          <mxGeometry x="-145" y="370" width="50" height="50" as="geometry" />
        </mxCell>
        <mxCell id="Ea4pvNYWEEPgaREjsY3E-9" value="" style="ellipse;whiteSpace=wrap;html=1;" vertex="1" parent="1">
          <mxGeometry x="-145" y="90" width="50" height="50" as="geometry" />
        </mxCell>
        <mxCell id="Ea4pvNYWEEPgaREjsY3E-10" value="" style="ellipse;whiteSpace=wrap;html=1;rotation=-180;" vertex="1" parent="1">
          <mxGeometry x="955" y="230" width="50" height="50" as="geometry" />
        </mxCell>
        <mxCell id="Ea4pvNYWEEPgaREjsY3E-11" value="" style="ellipse;whiteSpace=wrap;html=1;rotation=-180;" vertex="1" parent="1">
          <mxGeometry x="885" y="230" width="50" height="50" as="geometry" />
        </mxCell>
        <mxCell id="Ea4pvNYWEEPgaREjsY3E-12" value="" style="ellipse;whiteSpace=wrap;html=1;rotation=-180;" vertex="1" parent="1">
          <mxGeometry x="815" y="230" width="50" height="50" as="geometry" />
        </mxCell>
        <mxCell id="Ea4pvNYWEEPgaREjsY3E-13" value="" style="ellipse;whiteSpace=wrap;html=1;rotation=-180;" vertex="1" parent="1">
          <mxGeometry x="885" y="300" width="50" height="50" as="geometry" />
        </mxCell>
        <mxCell id="Ea4pvNYWEEPgaREjsY3E-14" value="" style="ellipse;whiteSpace=wrap;html=1;rotation=-180;" vertex="1" parent="1">
          <mxGeometry x="815" y="300" width="50" height="50" as="geometry" />
        </mxCell>
        <mxCell id="Ea4pvNYWEEPgaREjsY3E-15" value="" style="ellipse;whiteSpace=wrap;html=1;rotation=-180;" vertex="1" parent="1">
          <mxGeometry x="885" y="160" width="50" height="50" as="geometry" />
        </mxCell>
        <mxCell id="Ea4pvNYWEEPgaREjsY3E-16" value="" style="ellipse;whiteSpace=wrap;html=1;rotation=-180;" vertex="1" parent="1">
          <mxGeometry x="815" y="160" width="50" height="50" as="geometry" />
        </mxCell>
        <mxCell id="Ea4pvNYWEEPgaREjsY3E-17" value="" style="ellipse;whiteSpace=wrap;html=1;rotation=-180;" vertex="1" parent="1">
          <mxGeometry x="815" y="90" width="50" height="50" as="geometry" />
        </mxCell>
        <mxCell id="Ea4pvNYWEEPgaREjsY3E-18" value="" style="ellipse;whiteSpace=wrap;html=1;rotation=-180;" vertex="1" parent="1">
          <mxGeometry x="815" y="370" width="50" height="50" as="geometry" />
        </mxCell>
        <mxCell id="Ea4pvNYWEEPgaREjsY3E-22" value="&lt;pre&gt;&lt;font style=&quot;font-size: 18px;&quot;&gt;31 30 29 28 27 26 25 24 23 22 21 20 19 18 17 16 15 14 13 12 11 10 9  8  7  6  5  4  3  2  1  0&lt;/font&gt;&lt;/pre&gt;" style="rounded=0;whiteSpace=wrap;html=1;" vertex="1" parent="1">
          <mxGeometry x="-140" y="680" width="940" height="40" as="geometry" />
        </mxCell>
        <object label="" id="Ea4pvNYWEEPgaREjsY3E-52">
          <mxCell style="childLayout=tableLayout;recursiveResize=0;shadow=0;fillColor=none;movable=1;resizable=1;rotatable=1;deletable=1;editable=1;locked=0;connectable=1;" vertex="1" parent="1">
            <mxGeometry x="-140" y="680" width="940" height="40" as="geometry" />
          </mxCell>
        </object>
        <mxCell id="Ea4pvNYWEEPgaREjsY3E-53" value="" style="shape=tableRow;horizontal=0;startSize=0;swimlaneHead=0;swimlaneBody=0;top=0;left=0;bottom=0;right=0;dropTarget=0;collapsible=0;recursiveResize=0;expand=0;fontStyle=0;fillColor=none;strokeColor=inherit;" vertex="1" parent="Ea4pvNYWEEPgaREjsY3E-52">
          <mxGeometry width="940" height="40" as="geometry" />
        </mxCell>
        <mxCell id="Ea4pvNYWEEPgaREjsY3E-54" value="" style="connectable=0;recursiveResize=0;strokeColor=inherit;fillColor=none;align=center;whiteSpace=wrap;html=1;" vertex="1" parent="Ea4pvNYWEEPgaREjsY3E-53">
          <mxGeometry width="30" height="40" as="geometry">
            <mxRectangle width="30" height="40" as="alternateBounds" />
          </mxGeometry>
        </mxCell>
        <mxCell id="Ea4pvNYWEEPgaREjsY3E-55" value="" style="connectable=0;recursiveResize=0;strokeColor=inherit;fillColor=none;align=center;whiteSpace=wrap;html=1;" vertex="1" parent="Ea4pvNYWEEPgaREjsY3E-53">
          <mxGeometry x="30" width="29" height="40" as="geometry">
            <mxRectangle width="29" height="40" as="alternateBounds" />
          </mxGeometry>
        </mxCell>
        <mxCell id="Ea4pvNYWEEPgaREjsY3E-91" style="connectable=0;recursiveResize=0;strokeColor=inherit;fillColor=none;align=center;whiteSpace=wrap;html=1;movable=0;resizable=0;rotatable=0;deletable=0;editable=0;locked=1;" vertex="1" parent="Ea4pvNYWEEPgaREjsY3E-53">
          <mxGeometry x="59" width="28" height="40" as="geometry">
            <mxRectangle width="28" height="40" as="alternateBounds" />
          </mxGeometry>
        </mxCell>
        <mxCell id="Ea4pvNYWEEPgaREjsY3E-90" value="" style="connectable=0;recursiveResize=0;strokeColor=inherit;fillColor=none;align=center;whiteSpace=wrap;html=1;" vertex="1" parent="Ea4pvNYWEEPgaREjsY3E-53">
          <mxGeometry x="87" width="31" height="40" as="geometry">
            <mxRectangle width="31" height="40" as="alternateBounds" />
          </mxGeometry>
        </mxCell>
        <mxCell id="Ea4pvNYWEEPgaREjsY3E-89" style="connectable=0;recursiveResize=0;strokeColor=inherit;fillColor=none;align=center;whiteSpace=wrap;html=1;" vertex="1" parent="Ea4pvNYWEEPgaREjsY3E-53">
          <mxGeometry x="118" width="29" height="40" as="geometry">
            <mxRectangle width="29" height="40" as="alternateBounds" />
          </mxGeometry>
        </mxCell>
        <mxCell id="Ea4pvNYWEEPgaREjsY3E-88" style="connectable=0;recursiveResize=0;strokeColor=inherit;fillColor=none;align=center;whiteSpace=wrap;html=1;" vertex="1" parent="Ea4pvNYWEEPgaREjsY3E-53">
          <mxGeometry x="147" width="30" height="40" as="geometry">
            <mxRectangle width="30" height="40" as="alternateBounds" />
          </mxGeometry>
        </mxCell>
        <mxCell id="Ea4pvNYWEEPgaREjsY3E-87" style="connectable=0;recursiveResize=0;strokeColor=inherit;fillColor=none;align=center;whiteSpace=wrap;html=1;" vertex="1" parent="Ea4pvNYWEEPgaREjsY3E-53">
          <mxGeometry x="177" width="29" height="40" as="geometry">
            <mxRectangle width="29" height="40" as="alternateBounds" />
          </mxGeometry>
        </mxCell>
        <mxCell id="Ea4pvNYWEEPgaREjsY3E-86" style="connectable=0;recursiveResize=0;strokeColor=inherit;fillColor=none;align=center;whiteSpace=wrap;html=1;" vertex="1" parent="Ea4pvNYWEEPgaREjsY3E-53">
          <mxGeometry x="206" width="29" height="40" as="geometry">
            <mxRectangle width="29" height="40" as="alternateBounds" />
          </mxGeometry>
        </mxCell>
        <mxCell id="Ea4pvNYWEEPgaREjsY3E-85" style="connectable=0;recursiveResize=0;strokeColor=inherit;fillColor=none;align=center;whiteSpace=wrap;html=1;" vertex="1" parent="Ea4pvNYWEEPgaREjsY3E-53">
          <mxGeometry x="235" width="30" height="40" as="geometry">
            <mxRectangle width="30" height="40" as="alternateBounds" />
          </mxGeometry>
        </mxCell>
        <mxCell id="Ea4pvNYWEEPgaREjsY3E-84" style="connectable=0;recursiveResize=0;strokeColor=inherit;fillColor=none;align=center;whiteSpace=wrap;html=1;" vertex="1" parent="Ea4pvNYWEEPgaREjsY3E-53">
          <mxGeometry x="265" width="29" height="40" as="geometry">
            <mxRectangle width="29" height="40" as="alternateBounds" />
          </mxGeometry>
        </mxCell>
        <mxCell id="Ea4pvNYWEEPgaREjsY3E-83" style="connectable=0;recursiveResize=0;strokeColor=inherit;fillColor=none;align=center;whiteSpace=wrap;html=1;" vertex="1" parent="Ea4pvNYWEEPgaREjsY3E-53">
          <mxGeometry x="294" width="30" height="40" as="geometry">
            <mxRectangle width="30" height="40" as="alternateBounds" />
          </mxGeometry>
        </mxCell>
        <mxCell id="Ea4pvNYWEEPgaREjsY3E-82" style="connectable=0;recursiveResize=0;strokeColor=inherit;fillColor=none;align=center;whiteSpace=wrap;html=1;" vertex="1" parent="Ea4pvNYWEEPgaREjsY3E-53">
          <mxGeometry x="324" width="29" height="40" as="geometry">
            <mxRectangle width="29" height="40" as="alternateBounds" />
          </mxGeometry>
        </mxCell>
        <mxCell id="Ea4pvNYWEEPgaREjsY3E-81" style="connectable=0;recursiveResize=0;strokeColor=inherit;fillColor=none;align=center;whiteSpace=wrap;html=1;" vertex="1" parent="Ea4pvNYWEEPgaREjsY3E-53">
          <mxGeometry x="353" width="29" height="40" as="geometry">
            <mxRectangle width="29" height="40" as="alternateBounds" />
          </mxGeometry>
        </mxCell>
        <mxCell id="Ea4pvNYWEEPgaREjsY3E-80" style="connectable=0;recursiveResize=0;strokeColor=inherit;fillColor=none;align=center;whiteSpace=wrap;html=1;" vertex="1" parent="Ea4pvNYWEEPgaREjsY3E-53">
          <mxGeometry x="382" width="30" height="40" as="geometry">
            <mxRectangle width="30" height="40" as="alternateBounds" />
          </mxGeometry>
        </mxCell>
        <mxCell id="Ea4pvNYWEEPgaREjsY3E-79" style="connectable=0;recursiveResize=0;strokeColor=inherit;fillColor=none;align=center;whiteSpace=wrap;html=1;" vertex="1" parent="Ea4pvNYWEEPgaREjsY3E-53">
          <mxGeometry x="412" width="29" height="40" as="geometry">
            <mxRectangle width="29" height="40" as="alternateBounds" />
          </mxGeometry>
        </mxCell>
        <mxCell id="Ea4pvNYWEEPgaREjsY3E-78" style="connectable=0;recursiveResize=0;strokeColor=inherit;fillColor=none;align=center;whiteSpace=wrap;html=1;" vertex="1" parent="Ea4pvNYWEEPgaREjsY3E-53">
          <mxGeometry x="441" width="30" height="40" as="geometry">
            <mxRectangle width="30" height="40" as="alternateBounds" />
          </mxGeometry>
        </mxCell>
        <mxCell id="Ea4pvNYWEEPgaREjsY3E-77" style="connectable=0;recursiveResize=0;strokeColor=inherit;fillColor=none;align=center;whiteSpace=wrap;html=1;" vertex="1" parent="Ea4pvNYWEEPgaREjsY3E-53">
          <mxGeometry x="471" width="29" height="40" as="geometry">
            <mxRectangle width="29" height="40" as="alternateBounds" />
          </mxGeometry>
        </mxCell>
        <mxCell id="Ea4pvNYWEEPgaREjsY3E-76" style="connectable=0;recursiveResize=0;strokeColor=inherit;fillColor=none;align=center;whiteSpace=wrap;html=1;" vertex="1" parent="Ea4pvNYWEEPgaREjsY3E-53">
          <mxGeometry x="500" width="29" height="40" as="geometry">
            <mxRectangle width="29" height="40" as="alternateBounds" />
          </mxGeometry>
        </mxCell>
        <mxCell id="Ea4pvNYWEEPgaREjsY3E-75" style="connectable=0;recursiveResize=0;strokeColor=inherit;fillColor=none;align=center;whiteSpace=wrap;html=1;" vertex="1" parent="Ea4pvNYWEEPgaREjsY3E-53">
          <mxGeometry x="529" width="30" height="40" as="geometry">
            <mxRectangle width="30" height="40" as="alternateBounds" />
          </mxGeometry>
        </mxCell>
        <mxCell id="Ea4pvNYWEEPgaREjsY3E-74" style="connectable=0;recursiveResize=0;strokeColor=inherit;fillColor=none;align=center;whiteSpace=wrap;html=1;" vertex="1" parent="Ea4pvNYWEEPgaREjsY3E-53">
          <mxGeometry x="559" width="29" height="40" as="geometry">
            <mxRectangle width="29" height="40" as="alternateBounds" />
          </mxGeometry>
        </mxCell>
        <mxCell id="Ea4pvNYWEEPgaREjsY3E-73" style="connectable=0;recursiveResize=0;strokeColor=inherit;fillColor=none;align=center;whiteSpace=wrap;html=1;" vertex="1" parent="Ea4pvNYWEEPgaREjsY3E-53">
          <mxGeometry x="588" width="30" height="40" as="geometry">
            <mxRectangle width="30" height="40" as="alternateBounds" />
          </mxGeometry>
        </mxCell>
        <mxCell id="Ea4pvNYWEEPgaREjsY3E-72" style="connectable=0;recursiveResize=0;strokeColor=inherit;fillColor=none;align=center;whiteSpace=wrap;html=1;" vertex="1" parent="Ea4pvNYWEEPgaREjsY3E-53">
          <mxGeometry x="618" width="29" height="40" as="geometry">
            <mxRectangle width="29" height="40" as="alternateBounds" />
          </mxGeometry>
        </mxCell>
        <mxCell id="Ea4pvNYWEEPgaREjsY3E-71" style="connectable=0;recursiveResize=0;strokeColor=inherit;fillColor=none;align=center;whiteSpace=wrap;html=1;" vertex="1" parent="Ea4pvNYWEEPgaREjsY3E-53">
          <mxGeometry x="647" width="29" height="40" as="geometry">
            <mxRectangle width="29" height="40" as="alternateBounds" />
          </mxGeometry>
        </mxCell>
        <mxCell id="Ea4pvNYWEEPgaREjsY3E-70" style="connectable=0;recursiveResize=0;strokeColor=inherit;fillColor=none;align=center;whiteSpace=wrap;html=1;" vertex="1" parent="Ea4pvNYWEEPgaREjsY3E-53">
          <mxGeometry x="676" width="29" height="40" as="geometry">
            <mxRectangle width="29" height="40" as="alternateBounds" />
          </mxGeometry>
        </mxCell>
        <mxCell id="Ea4pvNYWEEPgaREjsY3E-69" style="connectable=0;recursiveResize=0;strokeColor=inherit;fillColor=none;align=center;whiteSpace=wrap;html=1;" vertex="1" parent="Ea4pvNYWEEPgaREjsY3E-53">
          <mxGeometry x="705" width="30" height="40" as="geometry">
            <mxRectangle width="30" height="40" as="alternateBounds" />
          </mxGeometry>
        </mxCell>
        <mxCell id="Ea4pvNYWEEPgaREjsY3E-68" style="connectable=0;recursiveResize=0;strokeColor=inherit;fillColor=none;align=center;whiteSpace=wrap;html=1;" vertex="1" parent="Ea4pvNYWEEPgaREjsY3E-53">
          <mxGeometry x="735" width="30" height="40" as="geometry">
            <mxRectangle width="30" height="40" as="alternateBounds" />
          </mxGeometry>
        </mxCell>
        <mxCell id="Ea4pvNYWEEPgaREjsY3E-67" style="connectable=0;recursiveResize=0;strokeColor=inherit;fillColor=none;align=center;whiteSpace=wrap;html=1;" vertex="1" parent="Ea4pvNYWEEPgaREjsY3E-53">
          <mxGeometry x="765" width="29" height="40" as="geometry">
            <mxRectangle width="29" height="40" as="alternateBounds" />
          </mxGeometry>
        </mxCell>
        <mxCell id="Ea4pvNYWEEPgaREjsY3E-66" style="connectable=0;recursiveResize=0;strokeColor=inherit;fillColor=none;align=center;whiteSpace=wrap;html=1;" vertex="1" parent="Ea4pvNYWEEPgaREjsY3E-53">
          <mxGeometry x="794" width="30" height="40" as="geometry">
            <mxRectangle width="30" height="40" as="alternateBounds" />
          </mxGeometry>
        </mxCell>
        <mxCell id="Ea4pvNYWEEPgaREjsY3E-65" style="connectable=0;recursiveResize=0;strokeColor=inherit;fillColor=none;align=center;whiteSpace=wrap;html=1;" vertex="1" parent="Ea4pvNYWEEPgaREjsY3E-53">
          <mxGeometry x="824" width="29" height="40" as="geometry">
            <mxRectangle width="29" height="40" as="alternateBounds" />
          </mxGeometry>
        </mxCell>
        <mxCell id="Ea4pvNYWEEPgaREjsY3E-93" style="connectable=0;recursiveResize=0;strokeColor=inherit;fillColor=none;align=center;whiteSpace=wrap;html=1;" vertex="1" parent="Ea4pvNYWEEPgaREjsY3E-53">
          <mxGeometry x="853" width="29" height="40" as="geometry">
            <mxRectangle width="29" height="40" as="alternateBounds" />
          </mxGeometry>
        </mxCell>
        <mxCell id="Ea4pvNYWEEPgaREjsY3E-94" value="" style="connectable=0;recursiveResize=0;strokeColor=inherit;fillColor=none;align=center;whiteSpace=wrap;html=1;" vertex="1" parent="Ea4pvNYWEEPgaREjsY3E-53">
          <mxGeometry x="882" width="29" height="40" as="geometry">
            <mxRectangle width="29" height="40" as="alternateBounds" />
          </mxGeometry>
        </mxCell>
        <mxCell id="Ea4pvNYWEEPgaREjsY3E-95" style="connectable=0;recursiveResize=0;strokeColor=inherit;fillColor=none;align=center;whiteSpace=wrap;html=1;" vertex="1" parent="Ea4pvNYWEEPgaREjsY3E-53">
          <mxGeometry x="911" width="29" height="40" as="geometry">
            <mxRectangle width="29" height="40" as="alternateBounds" />
          </mxGeometry>
        </mxCell>
        <mxCell id="Ea4pvNYWEEPgaREjsY3E-96" value="" style="endArrow=classic;html=1;rounded=0;exitX=0.989;exitY=0;exitDx=0;exitDy=0;exitPerimeter=0;strokeColor=light-dark(#000000,#99CCFF);" edge="1" parent="1" source="Ea4pvNYWEEPgaREjsY3E-22">
          <mxGeometry width="50" height="50" relative="1" as="geometry">
            <mxPoint x="690" y="600" as="sourcePoint" />
            <mxPoint x="190" y="435" as="targetPoint" />
            <Array as="points">
              <mxPoint x="790" y="560" />
              <mxPoint x="200" y="560" />
              <mxPoint x="200" y="435" />
            </Array>
          </mxGeometry>
        </mxCell>
        <mxCell id="Ea4pvNYWEEPgaREjsY3E-109" value="0" style="edgeLabel;html=1;align=center;verticalAlign=middle;resizable=0;points=[];" vertex="1" connectable="0" parent="Ea4pvNYWEEPgaREjsY3E-96">
          <mxGeometry x="0.7941" relative="1" as="geometry">
            <mxPoint as="offset" />
          </mxGeometry>
        </mxCell>
        <mxCell id="Ea4pvNYWEEPgaREjsY3E-97" value="" style="endArrow=classic;html=1;rounded=0;exitX=0.957;exitY=-0.025;exitDx=0;exitDy=0;exitPerimeter=0;strokeColor=light-dark(#000000,#99CCFF);" edge="1" parent="1" source="Ea4pvNYWEEPgaREjsY3E-22">
          <mxGeometry width="50" height="50" relative="1" as="geometry">
            <mxPoint x="760" y="600" as="sourcePoint" />
            <mxPoint x="230" y="450" as="targetPoint" />
            <Array as="points">
              <mxPoint x="760" y="555" />
              <mxPoint x="245" y="555" />
              <mxPoint x="245" y="465" />
            </Array>
          </mxGeometry>
        </mxCell>
        <mxCell id="Ea4pvNYWEEPgaREjsY3E-110" value="1" style="edgeLabel;html=1;align=center;verticalAlign=middle;resizable=0;points=[];" vertex="1" connectable="0" parent="Ea4pvNYWEEPgaREjsY3E-97">
          <mxGeometry x="0.8808" y="1" relative="1" as="geometry">
            <mxPoint x="1" y="16" as="offset" />
          </mxGeometry>
        </mxCell>
        <mxCell id="Ea4pvNYWEEPgaREjsY3E-98" value="" style="endArrow=classic;html=1;rounded=0;exitX=0.924;exitY=-0.039;exitDx=0;exitDy=0;exitPerimeter=0;strokeColor=light-dark(#000000,#99CCFF);" edge="1" parent="1" source="Ea4pvNYWEEPgaREjsY3E-53">
          <mxGeometry width="50" height="50" relative="1" as="geometry">
            <mxPoint x="80" y="575" as="sourcePoint" />
            <mxPoint x="170" y="455" as="targetPoint" />
            <Array as="points">
              <mxPoint x="729" y="565" />
              <mxPoint x="170" y="565" />
            </Array>
          </mxGeometry>
        </mxCell>
        <mxCell id="Ea4pvNYWEEPgaREjsY3E-108" value="2" style="edgeLabel;html=1;align=center;verticalAlign=middle;resizable=0;points=[];" vertex="1" connectable="0" parent="Ea4pvNYWEEPgaREjsY3E-98">
          <mxGeometry x="0.8074" y="-1" relative="1" as="geometry">
            <mxPoint x="-2" y="-25" as="offset" />
          </mxGeometry>
        </mxCell>
        <mxCell id="Ea4pvNYWEEPgaREjsY3E-99" value="" style="endArrow=classic;html=1;rounded=0;exitX=0.893;exitY=0.008;exitDx=0;exitDy=0;exitPerimeter=0;strokeColor=light-dark(#000000,#99CCFF);" edge="1" parent="1" source="Ea4pvNYWEEPgaREjsY3E-22">
          <mxGeometry width="50" height="50" relative="1" as="geometry">
            <mxPoint x="699" y="600" as="sourcePoint" />
            <mxPoint x="150" y="435" as="targetPoint" />
            <Array as="points">
              <mxPoint x="699" y="570" />
              <mxPoint x="125" y="570" />
              <mxPoint x="125" y="435" />
            </Array>
          </mxGeometry>
        </mxCell>
        <mxCell id="Ea4pvNYWEEPgaREjsY3E-111" value="3" style="edgeLabel;html=1;align=center;verticalAlign=middle;resizable=0;points=[];" vertex="1" connectable="0" parent="Ea4pvNYWEEPgaREjsY3E-99">
          <mxGeometry x="0.8058" relative="1" as="geometry">
            <mxPoint as="offset" />
          </mxGeometry>
        </mxCell>
        <mxCell id="Ea4pvNYWEEPgaREjsY3E-101" value="" style="endArrow=classic;html=1;rounded=0;exitX=0.862;exitY=-0.012;exitDx=0;exitDy=0;exitPerimeter=0;strokeColor=light-dark(#000000,#99CCFF);" edge="1" parent="1" source="Ea4pvNYWEEPgaREjsY3E-22">
          <mxGeometry width="50" height="50" relative="1" as="geometry">
            <mxPoint x="669" y="600" as="sourcePoint" />
            <mxPoint x="170" y="420" as="targetPoint" />
            <Array as="points">
              <mxPoint x="669" y="575" />
              <mxPoint x="95" y="575" />
              <mxPoint x="95" y="420" />
            </Array>
          </mxGeometry>
        </mxCell>
        <mxCell id="Ea4pvNYWEEPgaREjsY3E-112" value="4" style="edgeLabel;html=1;align=center;verticalAlign=middle;resizable=0;points=[];" vertex="1" connectable="0" parent="Ea4pvNYWEEPgaREjsY3E-101">
          <mxGeometry x="0.6867" relative="1" as="geometry">
            <mxPoint as="offset" />
          </mxGeometry>
        </mxCell>
        <mxCell id="Ea4pvNYWEEPgaREjsY3E-102" value="" style="endArrow=classic;html=1;rounded=0;exitX=0.83;exitY=-0.036;exitDx=0;exitDy=0;exitPerimeter=0;strokeColor=light-dark(#000000,#99CCFF);" edge="1" parent="1" source="Ea4pvNYWEEPgaREjsY3E-22">
          <mxGeometry width="50" height="50" relative="1" as="geometry">
            <mxPoint x="639" y="600" as="sourcePoint" />
            <mxPoint x="155" y="405" as="targetPoint" />
            <Array as="points">
              <mxPoint x="639" y="580" />
              <mxPoint x="65" y="580" />
              <mxPoint x="65" y="405" />
            </Array>
          </mxGeometry>
        </mxCell>
        <mxCell id="Ea4pvNYWEEPgaREjsY3E-113" value="5" style="edgeLabel;html=1;align=center;verticalAlign=middle;resizable=0;points=[];" vertex="1" connectable="0" parent="Ea4pvNYWEEPgaREjsY3E-102">
          <mxGeometry x="0.7269" relative="1" as="geometry">
            <mxPoint as="offset" />
          </mxGeometry>
        </mxCell>
        <mxCell id="Ea4pvNYWEEPgaREjsY3E-103" value="" style="endArrow=classic;html=1;rounded=0;exitX=0.803;exitY=-0.003;exitDx=0;exitDy=0;exitPerimeter=0;strokeColor=light-dark(#000000,#99CCFF);" edge="1" parent="1" source="Ea4pvNYWEEPgaREjsY3E-22">
          <mxGeometry width="50" height="50" relative="1" as="geometry">
            <mxPoint x="615" y="675" as="sourcePoint" />
            <mxPoint x="170" y="390" as="targetPoint" />
            <Array as="points">
              <mxPoint x="615" y="585" />
              <mxPoint x="40" y="585" />
              <mxPoint x="40" y="370" />
              <mxPoint x="170" y="370" />
            </Array>
          </mxGeometry>
        </mxCell>
        <mxCell id="Ea4pvNYWEEPgaREjsY3E-114" value="6" style="edgeLabel;html=1;align=center;verticalAlign=middle;resizable=0;points=[];" vertex="1" connectable="0" parent="Ea4pvNYWEEPgaREjsY3E-103">
          <mxGeometry x="0.541" relative="1" as="geometry">
            <mxPoint as="offset" />
          </mxGeometry>
        </mxCell>
        <mxCell id="Ea4pvNYWEEPgaREjsY3E-104" value="" style="endArrow=classic;html=1;rounded=0;exitX=0.803;exitY=-0.003;exitDx=0;exitDy=0;exitPerimeter=0;strokeColor=light-dark(#000000,#99CCFF);" edge="1" parent="1">
          <mxGeometry width="50" height="50" relative="1" as="geometry">
            <mxPoint x="580" y="680" as="sourcePoint" />
            <mxPoint x="185" y="405" as="targetPoint" />
            <Array as="points">
              <mxPoint x="580" y="590" />
              <mxPoint x="5" y="590" />
              <mxPoint x="5" y="360" />
              <mxPoint x="135" y="360" />
              <mxPoint x="205" y="360" />
              <mxPoint x="205" y="405" />
            </Array>
          </mxGeometry>
        </mxCell>
        <mxCell id="Ea4pvNYWEEPgaREjsY3E-115" value="7" style="edgeLabel;html=1;align=center;verticalAlign=middle;resizable=0;points=[];" vertex="1" connectable="0" parent="Ea4pvNYWEEPgaREjsY3E-104">
          <mxGeometry x="0.4204" y="-1" relative="1" as="geometry">
            <mxPoint as="offset" />
          </mxGeometry>
        </mxCell>
        <mxCell id="Ea4pvNYWEEPgaREjsY3E-118" value="" style="endArrow=classic;html=1;rounded=0;entryX=0.6;entryY=0.6;entryDx=0;entryDy=0;entryPerimeter=0;" edge="1" parent="1" target="Ea4pvNYWEEPgaREjsY3E-18">
          <mxGeometry width="50" height="50" relative="1" as="geometry">
            <mxPoint x="465" y="450" as="sourcePoint" />
            <mxPoint x="515" y="400" as="targetPoint" />
            <Array as="points">
              <mxPoint x="465" y="360" />
              <mxPoint x="790" y="360" />
            </Array>
          </mxGeometry>
        </mxCell>
        <mxCell id="Ea4pvNYWEEPgaREjsY3E-119" value="x" style="text;html=1;align=center;verticalAlign=middle;whiteSpace=wrap;rounded=0;fontColor=light-dark(#000000,#FF0000);fontSize=29;" vertex="1" parent="1">
          <mxGeometry x="460" y="440" width="10" height="15" as="geometry" />
        </mxCell>
        <mxCell id="Ea4pvNYWEEPgaREjsY3E-120" value="" style="endArrow=classic;html=1;rounded=0;strokeColor=light-dark(#000000,#99CCFF);" edge="1" parent="1" target="Ea4pvNYWEEPgaREjsY3E-119">
          <mxGeometry width="50" height="50" relative="1" as="geometry">
            <mxPoint x="285" y="680" as="sourcePoint" />
            <mxPoint x="335" y="630" as="targetPoint" />
          </mxGeometry>
        </mxCell>
        <mxCell id="Ea4pvNYWEEPgaREjsY3E-121" value="" style="endArrow=classic;html=1;rounded=0;entryX=0.5;entryY=1;entryDx=0;entryDy=0;exitX=0.233;exitY=1.01;exitDx=0;exitDy=0;exitPerimeter=0;" edge="1" parent="1" source="Ea4pvNYWEEPgaREjsY3E-53" target="Ea4pvNYWEEPgaREjsY3E-6">
          <mxGeometry width="50" height="50" relative="1" as="geometry">
            <mxPoint x="80" y="680" as="sourcePoint" />
            <mxPoint x="130" y="630" as="targetPoint" />
            <Array as="points">
              <mxPoint x="80" y="840" />
              <mxPoint x="-190" y="840" />
            </Array>
          </mxGeometry>
        </mxCell>
        <mxCell id="Ea4pvNYWEEPgaREjsY3E-122" value="" style="endArrow=classic;html=1;rounded=0;entryX=1;entryY=0.5;entryDx=0;entryDy=0;" edge="1" parent="1" target="Ea4pvNYWEEPgaREjsY3E-9">
          <mxGeometry width="50" height="50" relative="1" as="geometry">
            <mxPoint x="50" y="680" as="sourcePoint" />
            <mxPoint x="100" y="630" as="targetPoint" />
            <Array as="points">
              <mxPoint x="50" y="620" />
              <mxPoint x="-20" y="620" />
              <mxPoint x="-20" y="115" />
            </Array>
          </mxGeometry>
        </mxCell>
        <mxCell id="Ea4pvNYWEEPgaREjsY3E-123" value="" style="endArrow=classic;html=1;rounded=0;entryX=0;entryY=0.5;entryDx=0;entryDy=0;" edge="1" parent="1" target="Ea4pvNYWEEPgaREjsY3E-1">
          <mxGeometry width="50" height="50" relative="1" as="geometry">
            <mxPoint x="20" y="680" as="sourcePoint" />
            <mxPoint x="70" y="630" as="targetPoint" />
            <Array as="points">
              <mxPoint x="20" y="625" />
              <mxPoint x="-320" y="625" />
              <mxPoint x="-320" y="255" />
            </Array>
          </mxGeometry>
        </mxCell>
        <mxCell id="Ea4pvNYWEEPgaREjsY3E-124" value="" style="endArrow=classic;html=1;rounded=0;entryX=1;entryY=0.5;entryDx=0;entryDy=0;" edge="1" parent="1" target="Ea4pvNYWEEPgaREjsY3E-3">
          <mxGeometry width="50" height="50" relative="1" as="geometry">
            <mxPoint x="-5" y="680" as="sourcePoint" />
            <mxPoint x="45" y="630" as="targetPoint" />
            <Array as="points">
              <mxPoint x="-5" y="635" />
              <mxPoint x="-30" y="635" />
              <mxPoint x="-30" y="255" />
            </Array>
          </mxGeometry>
        </mxCell>
        <mxCell id="Ea4pvNYWEEPgaREjsY3E-125" value="" style="endArrow=classic;html=1;rounded=0;entryX=1;entryY=0.5;entryDx=0;entryDy=0;" edge="1" parent="1" target="Ea4pvNYWEEPgaREjsY3E-5">
          <mxGeometry width="50" height="50" relative="1" as="geometry">
            <mxPoint x="-40" y="680" as="sourcePoint" />
            <mxPoint x="10" y="630" as="targetPoint" />
            <Array as="points">
              <mxPoint x="-40" y="185" />
            </Array>
          </mxGeometry>
        </mxCell>
        <mxCell id="Ea4pvNYWEEPgaREjsY3E-126" value="" style="endArrow=classic;html=1;rounded=0;entryX=1;entryY=0.5;entryDx=0;entryDy=0;" edge="1" parent="1" target="Ea4pvNYWEEPgaREjsY3E-7">
          <mxGeometry width="50" height="50" relative="1" as="geometry">
            <mxPoint x="-65" y="680" as="sourcePoint" />
            <mxPoint x="-120" y="185" as="targetPoint" />
            <Array as="points">
              <mxPoint x="-65" y="325" />
            </Array>
          </mxGeometry>
        </mxCell>
        <mxCell id="Ea4pvNYWEEPgaREjsY3E-127" value="" style="endArrow=classic;html=1;rounded=0;entryX=0.5;entryY=1;entryDx=0;entryDy=0;" edge="1" parent="1" target="Ea4pvNYWEEPgaREjsY3E-8">
          <mxGeometry width="50" height="50" relative="1" as="geometry">
            <mxPoint x="-95" y="680" as="sourcePoint" />
            <mxPoint x="-125" y="325" as="targetPoint" />
            <Array as="points">
              <mxPoint x="-95" y="460" />
              <mxPoint x="-120" y="460" />
            </Array>
          </mxGeometry>
        </mxCell>
        <mxCell id="Ea4pvNYWEEPgaREjsY3E-128" value="" style="endArrow=classic;html=1;rounded=0;entryX=0;entryY=0.5;entryDx=0;entryDy=0;" edge="1" parent="1" target="Ea4pvNYWEEPgaREjsY3E-4">
          <mxGeometry width="50" height="50" relative="1" as="geometry">
            <mxPoint x="-125" y="680" as="sourcePoint" />
            <mxPoint x="-75" y="630" as="targetPoint" />
            <Array as="points">
              <mxPoint x="-125" y="640" />
              <mxPoint x="-380" y="640" />
              <mxPoint x="-380" y="185" />
            </Array>
          </mxGeometry>
        </mxCell>
      </root>
    </mxGraphModel>
  </diagram>
</mxfile>
